<mxfile host="app.diagrams.net" modified="2023-05-31T05:09:14.551Z" agent="Mozilla/5.0 (Windows NT 10.0; Win64; x64) AppleWebKit/537.36 (KHTML, like Gecko) Chrome/113.0.0.0 Safari/537.36" version="21.3.6" etag="VJ7JLzlOTmIIiF1WfeTG" type="github">
  <diagram name="Page-1" id="XmNvGrhXyMhRQj3r0GB2">
    <mxGraphModel>
      <root>
        <mxCell id="0" />
        <mxCell id="1" parent="0" />
      </root>
    </mxGraphModel>
  </diagram>
</mxfile>
